<svg width="25" height="25" viewBox="0 0 25 25" fill="none" xmlns="http://www.w3.org/2000/svg">
<path d="M23.7351 3.0701L21.5207 0.85571C21.2222 0.557591 20.8627 0.327545 20.467 0.18134C20.0712 0.0351358 19.6485 -0.0237708 19.2279 0.00865824C18.8072 0.0410872 18.3986 0.164085 18.0299 0.369221C17.6612 0.574357 17.3413 0.856782 17.092 1.19714L14.9361 4.12364C14.6671 4.49267 14.4881 4.91955 14.4136 5.37012C14.339 5.8207 14.371 6.28246 14.5069 6.71848L14.6337 7.08917C14.8971 7.95736 15.2385 9.04017 15.4531 9.76204C15.5199 9.98808 15.5026 10.2306 15.4043 10.4449C14.8756 11.5149 14.1919 12.501 13.3753 13.3714C13.2839 13.4621 13.2113 13.57 13.1618 13.6888C13.1123 13.8077 13.0868 13.9352 13.0868 14.064C13.0868 14.1928 13.1123 14.3203 13.1618 14.4392C13.2113 14.558 13.2839 14.6659 13.3753 14.7566C13.5581 14.9383 13.8053 15.0403 14.063 15.0403C14.3207 15.0403 14.568 14.9383 14.7508 14.7566C15.72 13.7438 16.5292 12.5892 17.1505 11.3326C17.4765 10.6747 17.5359 9.91638 17.3163 9.21576C17.1115 8.5134 16.7603 7.40133 16.4872 6.53313L16.3701 6.15269C16.3333 6.00652 16.3309 5.85382 16.3631 5.70657C16.3952 5.55932 16.4611 5.42153 16.5554 5.304L18.7113 2.37749C18.7942 2.26435 18.9005 2.17041 19.0229 2.10207C19.1454 2.03374 19.2812 1.99261 19.421 1.9815C19.5608 1.97039 19.7013 1.98956 19.8331 2.03769C19.9648 2.08583 20.0846 2.1618 20.1843 2.26043L20.8379 2.91402L18.8869 5.93807C18.7924 6.08534 18.7393 6.25532 18.733 6.43018C18.7268 6.60504 18.7678 6.77836 18.8515 6.93197C18.9353 7.08558 19.0589 7.21382 19.2093 7.30327C19.3597 7.39271 19.5313 7.44006 19.7063 7.44035C19.8686 7.44113 20.0286 7.4014 20.1717 7.32474C20.3148 7.24809 20.4365 7.13694 20.5257 7.00137L22.2524 4.3285L22.4084 4.47482C22.635 4.72131 22.8103 5.01038 22.9242 5.32521C23.0381 5.64005 23.0882 5.97437 23.0718 6.30877C23.0718 8.02565 21.9109 11.1863 16.5067 16.493C10.839 22.0534 6.34194 24.297 4.47873 22.4143L2.20581 20.1706C2.10679 20.0716 2.03027 19.9523 1.98145 19.821C1.93264 19.6897 1.91267 19.5495 1.92291 19.4098C1.93415 19.2692 1.97573 19.1328 2.04478 19.0098C2.11382 18.8869 2.2087 18.7804 2.32287 18.6976L5.24937 16.5418C5.37135 16.4526 5.51239 16.3929 5.66136 16.3675C5.81034 16.3421 5.96317 16.3517 6.10782 16.3955L7.95151 16.971L5.8737 18.444C5.76819 18.5179 5.67838 18.612 5.60944 18.7209C5.5405 18.8297 5.49379 18.9511 5.47203 19.0781C5.45026 19.205 5.45386 19.3351 5.48262 19.4606C5.51137 19.5862 5.56472 19.7049 5.63958 19.8097C5.73029 19.9371 5.85032 20.0409 5.98954 20.1122C6.12875 20.1835 6.28307 20.2203 6.43949 20.2194C6.6384 20.2189 6.83241 20.1577 6.99552 20.0438L10.7024 17.4392C10.8087 17.3661 10.8994 17.2725 10.9693 17.164C11.0391 17.0556 11.0868 16.9343 11.1095 16.8073C11.1321 16.6803 11.1294 16.55 11.1014 16.4241C11.0734 16.2981 11.0207 16.179 10.9463 16.0735C10.8171 15.9029 10.6355 15.7795 10.4293 15.7224L6.72238 14.5322C6.28637 14.3964 5.8246 14.3644 5.37403 14.4389C4.92346 14.5135 4.49658 14.6924 4.12755 14.9615L1.20104 17.1173C0.860688 17.3666 0.578264 17.6866 0.373127 18.0553C0.167991 18.4239 0.0449935 18.8326 0.0125645 19.2533C-0.0198645 19.6739 0.039042 20.0966 0.185247 20.4923C0.331451 20.8881 0.561497 21.2476 0.859616 21.5461L3.07401 23.7702C3.47297 24.1688 3.94802 24.4829 4.47089 24.6941C4.99375 24.9053 5.55376 25.0091 6.11757 24.9994C8.57584 24.9994 12.2827 23.2923 17.8236 17.8587C22.545 13.2251 24.9545 9.33282 24.974 6.28925C24.9979 5.69656 24.9003 5.10525 24.6872 4.55166C24.4742 3.99806 24.1502 3.49388 23.7351 3.0701Z" fill="white"/>
</svg>
