<svg width="25" height="25" viewBox="0 0 25 25" fill="none" xmlns="http://www.w3.org/2000/svg">
<path d="M12.5 25C5.5975 25 0 19.4025 0 12.5C0 5.5975 5.5975 0 12.5 0C19.4025 0 25 5.5975 25 12.5C25 19.4025 19.4025 25 12.5 25Z" fill="#25D366"/>
<path fill-rule="evenodd" clip-rule="evenodd" d="M18.3489 6.67758C16.7989 5.12508 14.7339 4.27008 12.5364 4.26758C8.00891 4.26758 4.32141 7.95258 4.32141 12.4826C4.32141 13.9301 4.69891 15.3451 5.41891 16.5901L4.25391 20.8476L8.60891 19.7051C9.80891 20.3601 11.1589 20.7051 12.5339 20.7051H12.5364C17.0639 20.7051 20.7489 17.0201 20.7514 12.4901C20.7539 10.2951 19.9014 8.23008 18.3489 6.67758ZM12.5389 19.3176H12.5364C11.3114 19.3176 10.1089 18.9876 9.06141 18.3651L8.81141 18.2176L6.22641 18.8951L6.91641 16.3751L6.75391 16.1176C6.07141 15.0301 5.70891 13.7751 5.70891 12.4826C5.71141 8.71758 8.77391 5.65508 12.5414 5.65508C14.3664 5.65508 16.0789 6.36758 17.3689 7.65758C18.6589 8.94758 19.3689 10.6651 19.3664 12.4876C19.3664 16.2551 16.3014 19.3176 12.5389 19.3176ZM16.2839 14.2026C16.0789 14.1001 15.0689 13.6026 14.8814 13.5351C14.6939 13.4676 14.5564 13.4326 14.4189 13.6376C14.2814 13.8426 13.8889 14.3051 13.7689 14.4426C13.6489 14.5801 13.5289 14.5976 13.3239 14.4951C13.1189 14.3926 12.4564 14.1751 11.6739 13.4751C11.0639 12.9301 10.6514 12.2576 10.5314 12.0526C10.4114 11.8476 10.5189 11.7351 10.6214 11.6326C10.7139 11.5401 10.8264 11.3926 10.9289 11.2726C11.0314 11.1526 11.0664 11.0676 11.1339 10.9301C11.2014 10.7926 11.1689 10.6726 11.1164 10.5701C11.0639 10.4676 10.6539 9.45758 10.4839 9.04508C10.3164 8.64508 10.1489 8.70008 10.0214 8.69258C9.90141 8.68758 9.76391 8.68508 9.62891 8.68508C9.49141 8.68508 9.26891 8.73758 9.08141 8.94258C8.89391 9.14758 8.36391 9.64508 8.36391 10.6551C8.36391 11.6651 9.09891 12.6426 9.20141 12.7776C9.30391 12.9151 10.6489 14.9876 12.7089 15.8776C13.1989 16.0901 13.5814 16.2151 13.8789 16.3101C14.3714 16.4676 14.8189 16.4451 15.1714 16.3926C15.5664 16.3326 16.3864 15.8951 16.5564 15.4176C16.7264 14.9376 16.7264 14.5276 16.6764 14.4426C16.6264 14.3576 16.4889 14.3076 16.2839 14.2026Z" fill="white"/>
</svg>
