<svg width="26" height="37" viewBox="0 0 26 37" fill="none" xmlns="http://www.w3.org/2000/svg">
<path d="M13 36.6012L12.3036 35.75C11.8393 35.131 0 21.2798 0 13C0 5.80358 5.88095 0 13 0C20.119 0 26 5.88097 26 13C26 21.2798 14.1607 35.2083 13.6964 35.75L13 36.6012ZM13 1.77978C6.80953 1.77978 1.85715 6.80953 1.85715 12.9226C1.85715 19.4226 10.4464 30.4881 13 33.6607C15.5536 30.4881 24.1429 19.5 24.1429 12.9226C24.1429 6.80953 19.1905 1.77978 13 1.77978Z" fill="white"/>
<path d="M12.9993 17.9526C10.2909 17.9526 8.04688 15.7086 8.04688 13.0003C8.04688 10.2919 10.2909 8.04785 12.9993 8.04785C15.7076 8.04785 17.9516 10.2919 17.9516 13.0003C17.9516 15.7086 15.7076 17.9526 12.9993 17.9526ZM12.9993 9.90501C11.2969 9.90501 9.90401 11.2979 9.90401 13.0003C9.90401 14.7026 11.2969 16.0955 12.9993 16.0955C14.7016 16.0955 16.0945 14.7026 16.0945 13.0003C16.0945 11.2979 14.7016 9.90501 12.9993 9.90501Z" fill="white"/>
</svg>
