<svg width="176" height="116" viewBox="0 0 176 116" fill="none" xmlns="http://www.w3.org/2000/svg">
<path d="M96.4698 44.8196C97.0599 44.9339 97.5235 45.038 97.991 45.1115C100.882 45.5239 103.72 46.249 106.455 47.2742C108.289 47.9379 109.983 48.9391 111.449 50.2262C112.315 50.9873 113.083 51.8539 113.733 52.8058C114.822 54.4463 115.248 56.4387 114.925 58.3808C114.602 60.323 113.554 62.0703 111.993 63.27C110.441 64.5733 108.494 65.313 106.468 65.369C104.442 65.4249 102.457 64.7937 100.836 63.578C99.462 62.5671 98.2753 61.3242 97.3292 59.905C95.2983 56.9282 93.995 53.516 93.5243 49.9432C93.4383 49.3462 93.3568 48.7475 93.2607 48.0463C92.8524 47.9782 92.44 47.937 92.0262 47.9229C89.4141 48.0351 86.8147 48.3518 84.252 48.8701C80.3088 49.6176 76.4133 50.5973 72.5856 51.804C64.9748 54.2239 57.8656 58.0035 51.603 62.9593C46.4935 67.0129 42.2051 72.005 38.9682 77.6672C36.8096 81.3352 34.8719 85.1287 33.1654 89.0276C32.6076 90.3116 31.9971 91.5685 31.3694 92.8149C31.1312 93.3045 30.8194 93.7547 30.4449 94.1499C30.2957 94.3026 29.8625 94.2804 29.6084 94.1928C29.5066 94.1355 29.421 94.0534 29.3595 93.9541C29.298 93.8548 29.2626 93.7415 29.2567 93.6249C29.3452 92.9656 29.4875 92.3148 29.6822 91.6788C30.962 87.5533 32.6437 83.5635 34.7031 79.7666C36.9598 75.4555 39.6921 71.4106 42.8489 67.7076C47.9776 61.9911 54.1012 57.2527 60.9219 53.7229C64.6047 51.7092 68.4867 50.0836 72.5055 48.8721C75.8873 47.8834 79.2978 46.9825 82.7223 46.1447C85.7982 45.4048 88.9379 44.9608 92.0983 44.8187C92.4541 44.801 92.8066 44.741 93.2369 44.6944C93.4062 43.5819 93.5372 42.5067 93.737 41.4457C94.6566 36.7115 96.6258 32.2436 99.4998 28.3708C103.569 22.7964 108.914 18.2775 115.088 15.1923C122.117 11.5086 129.885 9.45593 137.816 9.18673C141.046 9.07647 144.273 9.45213 147.391 10.3011C151.865 11.5515 155.934 13.948 159.198 17.2537C159.812 17.7582 160.27 18.4271 160.518 19.182C160.535 19.2679 160.533 19.3566 160.511 19.4415C160.489 19.5264 160.449 19.6053 160.392 19.6723C160.318 19.7136 160.235 19.7367 160.15 19.7396C160.065 19.7425 159.98 19.7252 159.903 19.689C159.702 19.5554 159.516 19.4008 159.347 19.2277C156.627 16.9738 153.563 15.1715 150.271 13.8895C146.454 12.4225 142.367 11.7886 138.284 12.0304C128.805 12.3707 119.612 15.3696 111.755 20.6848C106.922 23.892 102.902 28.1813 100.015 33.2125C98.1882 36.3837 97.0026 39.8829 96.525 43.5112C96.4776 43.8724 96.4931 44.2396 96.4698 44.8196ZM96.6381 48.1906C96.5763 48.3822 96.5343 48.5796 96.5128 48.7797C96.8508 52.5521 98.298 56.1399 100.672 59.091C101.344 59.955 102.176 60.6826 103.121 61.235C104.247 61.9224 105.582 62.1821 106.883 61.9666C108.185 61.7512 109.365 61.0751 110.209 60.0616C110.761 59.4887 111.136 58.7684 111.288 57.9875C111.441 57.2066 111.364 56.3983 111.068 55.6598C110.782 54.928 110.377 54.2482 109.87 53.6474C109.038 52.6785 108.032 51.8738 106.904 51.275C104.219 49.8491 101.317 48.8785 98.3144 48.4027C97.7977 48.3113 97.2636 48.2702 96.6381 48.1906Z" fill="#00649E"/>
<path d="M24.6146 110.512C25.2603 110.027 25.8274 109.585 26.4097 109.158C28.1837 107.882 29.9588 106.605 31.7401 105.344C32.1322 105.055 32.5534 104.808 32.997 104.606C33.3837 104.437 33.7967 104.337 34.2177 104.309C34.5246 104.282 34.8316 104.358 35.0909 104.524C35.3502 104.691 35.5471 104.938 35.6509 105.228C35.775 105.476 35.8183 105.757 35.7749 106.031C35.7315 106.305 35.6034 106.558 35.4087 106.755C33.2294 109.29 30.7741 111.573 28.0883 113.562C27.5823 113.898 27.043 114.18 26.479 114.405C25.6689 114.781 24.7498 114.851 23.8923 114.601C23.0348 114.351 22.2972 113.798 21.8163 113.046C21.5349 112.65 21.2852 112.233 21.0698 111.798C19.3825 108.42 18.3168 104.766 17.9236 101.011C17.8804 100.531 17.9187 100.047 18.0368 99.5797C18.0856 99.4009 18.1903 99.2425 18.3357 99.1276C18.481 99.0127 18.6594 98.9474 18.8446 98.9413C19.0265 98.9114 19.2131 98.9417 19.3763 99.0275C19.5394 99.1133 19.6701 99.25 19.7486 99.4168C19.9875 99.9059 20.1867 100.414 20.3441 100.935C20.7519 102.271 21.0849 103.632 21.5334 104.957C21.9062 106.049 22.3432 107.117 22.8421 108.157C23.2286 109.077 23.8377 109.886 24.6146 110.512Z" fill="#00649E"/>
</svg>
