<svg width="23" height="23" viewBox="0 0 23 23" fill="none" xmlns="http://www.w3.org/2000/svg">
<path d="M11.5 23C5.1497 23 0 17.8503 0 11.5C0 5.1497 5.1497 0 11.5 0C17.8503 0 23 5.1497 23 11.5C23 17.8503 17.8503 23 11.5 23Z" fill="#25D366"/>
<path fill-rule="evenodd" clip-rule="evenodd" d="M16.8815 6.14561C15.4555 4.71731 13.5557 3.93071 11.534 3.92841C7.36866 3.92841 3.97616 7.3186 3.97616 11.4862C3.97616 12.8179 4.32346 14.1197 4.98586 15.2651L3.91406 19.182L7.92066 18.1309C9.02466 18.7335 10.2667 19.0509 11.5317 19.0509H11.534C15.6993 19.0509 19.0895 15.6607 19.0918 11.4931C19.0941 9.47371 18.3098 7.57391 16.8815 6.14561ZM11.5363 17.7744H11.534C10.407 17.7744 9.30066 17.4708 8.33696 16.8981L8.10696 16.7624L5.72876 17.3857L6.36356 15.0673L6.21406 14.8304C5.58616 13.8299 5.25266 12.6753 5.25266 11.4862C5.25496 8.0224 8.07246 5.20491 11.5386 5.20491C13.2176 5.20491 14.7931 5.86041 15.9799 7.04721C17.1667 8.234 17.8199 9.81411 17.8176 11.4908C17.8176 14.9569 14.9978 17.7744 11.5363 17.7744ZM14.9817 13.0686C14.7931 12.9743 13.8639 12.5166 13.6914 12.4545C13.5189 12.3924 13.3924 12.3602 13.2659 12.5488C13.1394 12.7374 12.7783 13.1629 12.6679 13.2894C12.5575 13.4159 12.4471 13.432 12.2585 13.3377C12.0699 13.2434 11.4604 13.0433 10.7405 12.3993C10.1793 11.8979 9.79976 11.2792 9.68936 11.0906C9.57896 10.902 9.67786 10.7985 9.77216 10.7042C9.85726 10.6191 9.96076 10.4834 10.0551 10.373C10.1494 10.2626 10.1816 10.1844 10.2437 10.0579C10.3058 9.93141 10.2759 9.821 10.2276 9.72671C10.1793 9.63241 9.80206 8.70321 9.64566 8.32371C9.49156 7.95571 9.33746 8.00631 9.22016 7.9994C9.10976 7.9948 8.98326 7.99251 8.85906 7.99251C8.73256 7.99251 8.52786 8.0408 8.35536 8.2294C8.18286 8.418 7.69526 8.8757 7.69526 9.8049C7.69526 10.7341 8.37146 11.6334 8.46576 11.7576C8.56006 11.8841 9.79746 13.7908 11.6927 14.6096C12.1435 14.8051 12.4954 14.9201 12.7691 15.0075C13.2222 15.1524 13.6339 15.1317 13.9582 15.0834C14.3216 15.0282 15.076 14.6257 15.2324 14.1864C15.3888 13.7448 15.3888 13.3676 15.3428 13.2894C15.2968 13.2112 15.1703 13.1652 14.9817 13.0686Z" fill="white"/>
</svg>
